# xmcd CD database file
#
# Track frame offsets:
#	150
#	8878
#	16382
#	35263
#	45117
#	57304
#	76035
#	88009
#	107971
#	116647
#	125183
#
# Disc length: 1862 seconds
#
# Revision: 0
# Processed by: cddbd v1.5.2PL0 Copyright (c) Steve Scherf et al.
# Submitted via: CDex 1.51
#
DISCID=8207440b
DTITLE=Anita O'Day - My Funny Valentine Live 1955-1959
DYEAR=2012
DGENRE=Jazz
TTITLE0=Four Brothers 1958
TTITLE1=Love Me Or Leave Me 1957
TTITLE2=As Long As I Live 1956
TTITLE3=You're The Top 1956
TTITLE4=Come Rain Or Come Shine 1959
TTITLE5=The Man I Love 1956
TTITLE6=My Funny Valentine 1957
TTITLE7=S' Wonderful - They Can't Take That Away From Me 1958
TTITLE8=Have You Met Miss Jones? 1958
TTITLE9=Varsity Drag 1958
TTITLE10=Four 1958
EXTD=YEAR: 2012
EXTT0=
EXTT1=
EXTT2=
EXTT3=
EXTT4=
EXTT5=
EXTT6=
EXTT7=
EXTT8=
EXTT9=
EXTT10=
PLAYORDER=
